<?xml version="1.0" standalone="no"?>
<!DOCTYPE svg PUBLIC "-//W3C//DTD SVG 20010904//EN"
 "http://www.w3.org/TR/2001/REC-SVG-20010904/DTD/svg10.dtd">
<svg version="1.0" xmlns="http://www.w3.org/2000/svg"
 width="401.000000pt" height="401.000000pt" viewBox="0 0 401.000000 401.000000"
 preserveAspectRatio="xMidYMid meet">
<metadata>
Created by potrace 1.11, written by Peter Selinger 2001-2013
</metadata>
<g transform="translate(0.000000,401.000000) scale(0.100000,-0.100000)"
fill="#000000" stroke="none">
<path d="M112 3965 c-64 -28 -62 8 -62 -955 0 -967 -3 -927 64 -955 53 -22
1759 -22 1812 0 67 28 64 -12 64 955 0 967 3 927 -64 955 -52 22 -1764 22
-1814 0z"/>
<path d="M2714 3376 c-66 -29 -100 -109 -90 -211 9 -91 64 -192 156 -285 79
-80 197 -170 223 -170 25 0 170 115 237 187 111 122 164 274 130 379 -41 129
-187 153 -320 52 l-51 -39 -36 32 c-72 63 -177 86 -249 55z"/>
<path d="M2081 1986 c-52 -29 -50 4 -51 -954 0 -970 -2 -934 55 -960 19 -9
247 -12 916 -12 967 0 931 -2 957 55 17 38 17 1792 0 1830 -26 57 10 55 -960
55 -722 -1 -898 -3 -917 -14z"/>
<path d="M948 1342 l-66 -177 -166 -5 -166 -5 139 -105 139 -106 -66 -172
c-36 -95 -62 -175 -59 -178 3 -4 71 44 151 105 80 61 152 114 159 117 7 2 85
-49 172 -115 88 -66 161 -118 162 -117 1 1 -28 83 -66 181 l-69 179 139 105
139 106 -167 5 -166 5 -66 177 c-36 98 -68 178 -71 178 -3 0 -35 -80 -72 -178z"/>
</g>
</svg>
